<svg xmlns="http://www.w3.org/2000/svg" viewBox="0 0 64 64">
  <path d="M47 18C40 36 29 51 13 59c4-17 14-33 32-43z" fill="#f57c22"/>
  <path d="M45 19c-8 16-16 27-28 35" fill="none" stroke="#d95e18" stroke-width="3" stroke-linecap="round"/>
  <path d="M45 18c-4-7-2-12 5-16 3 6 2 11-5 16z" fill="#4f9a43"/>
  <path d="M45 18c4-7 10-9 16-5-4 6-9 8-16 5z" fill="#5eb24b"/>
  <path d="M45 18c-8-1-12-5-13-12 7 0 12 4 13 12z" fill="#3f8f36"/>
  <path d="M29 36l11 2M23 45l9 2" stroke="#ffb15c" stroke-width="3" stroke-linecap="round"/>
</svg>
